<svg id="svg" version="1.1" width="400" height="400" viewBox="0 0 400 400" xmlns="http://www.w3.org/2000/svg" xmlns:xlink="http://www.w3.org/1999/xlink" ><g id="svgg"><path id="path0" d="M180.800 112.600 C 180.800 113.095,180.067 113.200,176.600 113.200 C 174.067 113.200,172.400 113.359,172.400 113.600 C 172.400 113.826,171.267 114.000,169.800 114.000 C 167.756 114.000,167.200 114.128,167.200 114.600 C 167.200 115.080,166.600 115.200,164.200 115.200 C 161.800 115.200,161.200 115.320,161.200 115.800 C 161.200 116.232,160.758 116.400,159.624 116.400 C 158.757 116.400,157.924 116.599,157.774 116.843 C 157.583 117.151,157.396 117.121,157.156 116.743 C 156.903 116.343,156.811 116.332,156.806 116.700 C 156.802 117.032,156.093 117.211,154.700 117.232 C 153.545 117.249,152.825 117.354,153.100 117.465 C 154.236 117.923,153.471 118.400,151.600 118.400 C 150.500 118.400,149.600 118.580,149.600 118.800 C 149.600 119.020,148.880 119.200,148.000 119.200 C 146.844 119.200,146.400 119.367,146.400 119.800 C 146.400 120.233,145.956 120.400,144.800 120.400 C 143.644 120.400,143.200 120.567,143.200 121.000 C 143.200 121.433,142.756 121.600,141.600 121.600 C 140.720 121.600,140.000 121.780,140.000 122.000 C 140.000 122.220,139.550 122.400,139.000 122.400 C 138.378 122.400,138.000 122.627,138.000 123.000 C 138.000 123.373,137.622 123.600,137.000 123.600 C 136.450 123.600,136.000 123.780,136.000 124.000 C 136.000 124.220,135.531 124.400,134.957 124.400 C 134.195 124.400,133.976 124.561,134.145 125.000 C 134.285 125.365,134.145 125.600,133.787 125.600 C 133.464 125.600,133.200 125.870,133.200 126.200 C 133.200 126.566,132.827 126.800,132.243 126.800 C 131.716 126.800,131.180 127.074,131.052 127.410 C 130.888 127.837,130.516 127.944,129.809 127.766 C 129.044 127.574,128.800 127.669,128.800 128.157 C 128.800 128.527,128.470 128.800,128.024 128.800 C 127.597 128.800,127.136 128.980,127.000 129.200 C 126.864 129.420,126.353 129.600,125.865 129.600 C 124.992 129.600,123.600 130.831,123.600 131.605 C 123.600 131.822,123.150 132.000,122.600 132.000 C 122.050 132.000,121.600 132.180,121.600 132.400 C 121.600 132.620,121.330 132.800,121.000 132.800 C 120.592 132.800,120.396 133.217,120.387 134.100 C 120.376 135.214,120.304 135.307,119.882 134.753 C 119.319 134.014,118.400 134.652,118.400 135.783 C 118.400 136.122,118.130 136.400,117.800 136.400 C 117.470 136.400,117.200 136.580,117.200 136.800 C 117.200 137.020,116.750 137.200,116.200 137.200 C 115.650 137.200,115.200 137.380,115.200 137.600 C 115.200 137.820,114.930 138.000,114.600 138.000 C 114.270 138.000,114.000 138.193,114.000 138.429 C 114.000 138.982,112.982 140.000,112.429 140.000 C 112.193 140.000,112.000 140.270,112.000 140.600 C 112.000 140.930,111.820 141.200,111.600 141.200 C 111.380 141.200,111.200 141.470,111.200 141.800 C 111.200 142.130,110.930 142.400,110.600 142.400 C 110.227 142.400,110.000 142.778,110.000 143.400 C 110.000 144.200,109.800 144.400,109.000 144.400 C 108.450 144.400,108.000 144.580,108.000 144.800 C 108.000 145.020,107.730 145.200,107.400 145.200 C 107.070 145.200,106.800 145.470,106.800 145.800 C 106.800 146.130,106.517 146.400,106.171 146.400 C 105.722 146.400,105.578 146.714,105.667 147.500 C 105.747 148.212,105.616 148.565,105.296 148.500 C 105.023 148.445,104.800 148.670,104.800 149.000 C 104.800 149.330,104.549 149.600,104.243 149.600 C 103.560 149.600,103.087 150.683,103.624 151.015 C 103.838 151.147,103.908 151.426,103.779 151.634 C 103.650 151.843,103.377 151.909,103.172 151.783 C 102.968 151.656,102.800 151.833,102.800 152.176 C 102.800 152.519,102.530 152.800,102.200 152.800 C 101.870 152.800,101.600 152.980,101.600 153.200 C 101.600 153.420,101.330 153.600,101.000 153.600 C 100.670 153.600,100.400 153.870,100.400 154.200 C 100.400 154.530,100.220 154.800,100.000 154.800 C 99.780 154.800,99.621 154.935,99.647 155.100 C 99.803 156.085,99.517 156.800,98.968 156.800 C 98.474 156.800,98.394 157.062,98.600 158.000 C 98.806 158.938,98.726 159.200,98.232 159.200 C 97.825 159.200,97.600 159.555,97.600 160.200 C 97.600 160.822,97.373 161.200,97.000 161.200 C 96.670 161.200,96.400 161.380,96.400 161.600 C 96.400 161.820,96.130 162.000,95.800 162.000 C 95.427 162.000,95.200 162.378,95.200 163.000 C 95.200 163.550,95.020 164.000,94.800 164.000 C 94.580 164.000,94.421 164.135,94.447 164.300 C 94.620 165.392,94.314 166.400,93.810 166.400 C 93.361 166.400,93.280 166.702,93.473 167.663 C 93.709 168.845,93.663 168.910,92.763 168.668 C 92.233 168.527,91.665 168.408,91.500 168.405 C 91.335 168.402,91.200 159.353,91.200 148.295 L 91.200 128.190 90.300 127.795 C 89.805 127.578,89.222 126.995,89.005 126.500 C 88.511 125.373,83.824 125.077,84.255 126.200 C 84.404 126.586,84.247 126.800,83.814 126.800 C 81.920 126.800,82.000 124.420,82.000 180.995 C 82.000 216.261,82.134 233.964,82.400 233.800 C 82.620 233.664,82.800 233.743,82.800 233.976 C 82.800 234.209,82.575 234.403,82.300 234.406 C 81.913 234.411,81.909 234.482,82.285 234.721 C 82.569 234.901,82.804 236.105,82.850 237.615 C 82.894 239.037,83.005 239.975,83.098 239.700 C 83.368 238.898,83.824 239.123,83.897 240.094 C 83.934 240.586,84.152 241.051,84.382 241.127 C 84.612 241.204,84.800 241.972,84.800 242.833 C 84.800 243.959,84.969 244.400,85.400 244.400 C 85.730 244.400,86.000 244.580,86.000 244.800 C 86.000 245.020,86.270 245.200,86.600 245.200 C 86.973 245.200,87.200 245.578,87.200 246.200 C 87.200 246.845,87.425 247.200,87.832 247.200 C 88.328 247.200,88.406 247.462,88.195 248.421 C 87.942 249.576,87.989 249.635,89.064 249.521 C 90.088 249.412,90.189 249.508,90.085 250.500 C 90.004 251.273,90.153 251.600,90.585 251.600 C 90.982 251.600,91.200 251.972,91.200 252.649 C 91.200 253.584,91.274 253.638,91.877 253.149 C 92.337 252.776,92.457 252.760,92.253 253.100 C 92.052 253.435,92.224 253.600,92.776 253.600 C 93.229 253.600,93.600 253.830,93.600 254.112 C 93.600 254.393,93.960 254.883,94.400 255.200 C 94.840 255.517,95.200 256.007,95.200 256.288 C 95.200 256.570,95.554 256.800,95.987 256.800 C 96.523 256.800,96.701 256.992,96.545 257.400 C 96.399 257.780,96.550 258.000,96.957 258.000 C 97.311 258.000,97.600 258.180,97.600 258.400 C 97.600 258.620,98.050 258.800,98.600 258.800 C 99.150 258.800,99.600 258.993,99.600 259.229 C 99.600 259.999,100.704 260.861,100.968 260.296 C 101.152 259.902,101.248 259.903,101.433 260.300 C 101.562 260.575,101.922 260.800,102.233 260.800 C 102.545 260.800,102.800 261.070,102.800 261.400 C 102.800 261.730,102.980 262.000,103.200 262.000 C 103.420 262.000,103.600 262.270,103.600 262.600 C 103.600 262.973,103.978 263.200,104.600 263.200 C 105.150 263.200,105.600 263.380,105.600 263.600 C 105.600 263.820,106.140 264.000,106.800 264.000 C 107.600 264.000,108.000 264.200,108.000 264.600 C 108.000 264.973,108.378 265.200,109.000 265.200 C 109.550 265.200,110.000 265.380,110.000 265.600 C 110.000 265.820,110.450 266.000,111.000 266.000 C 111.622 266.000,112.000 266.227,112.000 266.600 C 112.000 266.973,112.378 267.200,113.000 267.200 C 113.622 267.200,114.000 267.427,114.000 267.800 C 114.000 268.200,114.400 268.400,115.200 268.400 C 115.890 268.400,116.403 268.612,116.406 268.900 C 116.410 269.233,116.542 269.200,116.800 268.800 C 117.058 268.400,117.190 268.367,117.194 268.700 C 117.197 268.975,117.650 269.200,118.200 269.200 C 118.822 269.200,119.200 269.427,119.200 269.800 C 119.200 270.200,119.600 270.400,120.400 270.400 C 121.060 270.400,121.600 270.580,121.600 270.800 C 121.600 271.020,122.230 271.200,123.000 271.200 C 123.978 271.200,124.400 271.381,124.400 271.800 C 124.400 272.233,124.844 272.400,126.000 272.400 C 127.203 272.400,127.600 272.560,127.600 273.043 C 127.600 273.444,127.821 273.601,128.188 273.460 C 128.512 273.336,129.039 273.496,129.360 273.817 C 129.717 274.174,130.728 274.400,131.971 274.400 C 133.508 274.400,134.000 274.546,134.000 275.000 C 134.000 275.453,134.489 275.600,136.000 275.600 C 137.330 275.600,138.002 275.767,138.006 276.100 C 138.010 276.439,138.149 276.407,138.437 276.000 C 138.756 275.548,138.911 275.524,139.064 275.900 C 139.178 276.180,139.955 276.400,140.833 276.400 C 141.959 276.400,142.400 276.569,142.400 277.000 C 142.400 277.453,142.889 277.600,144.400 277.600 C 145.911 277.600,146.400 277.747,146.400 278.200 C 146.400 278.653,146.889 278.800,148.400 278.800 C 149.500 278.800,150.400 278.980,150.400 279.200 C 150.400 279.435,151.796 279.600,153.787 279.600 C 156.634 279.600,157.138 279.696,156.945 280.200 C 156.754 280.696,157.172 280.800,159.357 280.800 C 160.852 280.800,162.000 280.974,162.000 281.200 C 162.000 281.441,163.667 281.600,166.200 281.600 C 169.667 281.600,170.400 281.705,170.400 282.200 C 170.400 282.701,171.219 282.800,175.367 282.800 C 180.537 282.800,182.108 283.032,181.134 283.650 C 180.839 283.836,189.500 283.990,200.500 283.994 C 217.925 283.999,220.400 283.925,220.400 283.400 C 220.400 282.897,221.244 282.800,225.600 282.800 C 229.956 282.800,230.800 282.703,230.800 282.200 C 230.800 281.711,231.467 281.600,234.400 281.600 C 236.533 281.600,238.000 281.437,238.000 281.200 C 238.000 280.967,239.333 280.800,241.200 280.800 C 243.778 280.800,244.400 280.683,244.400 280.200 C 244.400 279.733,244.933 279.600,246.800 279.600 C 248.534 279.600,249.200 279.452,249.200 279.066 C 249.200 278.651,249.935 278.568,252.500 278.693 C 254.601 278.796,255.606 278.719,255.266 278.483 C 254.497 277.947,255.584 277.600,258.033 277.600 C 259.515 277.600,260.000 277.452,260.000 277.000 C 260.000 276.547,260.489 276.400,262.000 276.400 C 263.100 276.400,264.000 276.220,264.000 276.000 C 264.000 275.780,264.720 275.600,265.600 275.600 C 266.756 275.600,267.200 275.433,267.200 275.000 C 267.200 274.547,267.689 274.400,269.200 274.400 C 270.300 274.400,271.200 274.220,271.200 274.000 C 271.200 273.780,271.656 273.600,272.213 273.600 C 272.769 273.600,273.329 273.330,273.455 273.000 C 273.597 272.630,274.205 272.400,275.043 272.400 C 275.983 272.400,276.400 272.215,276.400 271.800 C 276.400 271.367,276.844 271.200,278.000 271.200 C 278.880 271.200,279.600 271.020,279.600 270.800 C 279.600 270.580,280.320 270.400,281.200 270.400 C 282.356 270.400,282.800 270.233,282.800 269.800 C 282.800 269.427,283.178 269.200,283.800 269.200 C 284.350 269.200,284.800 269.020,284.800 268.800 C 284.800 268.580,285.272 268.400,285.849 268.400 C 286.753 268.400,286.827 268.314,286.381 267.777 C 286.097 267.435,286.030 267.186,286.232 267.225 C 287.464 267.459,288.800 267.134,288.800 266.600 C 288.800 266.234,289.173 266.000,289.757 266.000 C 290.284 266.000,290.820 265.726,290.948 265.390 C 291.112 264.963,291.484 264.856,292.191 265.034 C 292.956 265.226,293.200 265.131,293.200 264.643 C 293.200 264.290,293.470 264.000,293.800 264.000 C 294.130 264.000,294.400 263.820,294.400 263.600 C 294.400 263.380,295.030 263.200,295.800 263.200 C 296.778 263.200,297.200 263.019,297.200 262.600 C 297.200 262.270,297.380 262.000,297.600 262.000 C 297.820 262.000,298.000 261.730,298.000 261.400 C 298.000 261.000,298.400 260.800,299.200 260.800 C 300.213 260.800,300.400 260.644,300.400 259.800 C 300.400 258.858,301.486 258.466,303.300 258.753 C 303.465 258.779,303.600 258.350,303.600 257.800 C 303.600 257.000,303.800 256.800,304.600 256.800 C 305.222 256.800,305.600 256.573,305.600 256.200 C 305.600 255.870,305.780 255.600,306.000 255.600 C 306.220 255.600,306.400 255.330,306.400 255.000 C 306.400 254.670,306.670 254.400,307.000 254.400 C 307.330 254.400,307.600 254.220,307.600 254.000 C 307.600 253.780,307.870 253.600,308.200 253.600 C 308.530 253.600,308.800 253.319,308.800 252.976 C 308.800 252.633,308.983 252.466,309.207 252.604 C 309.430 252.742,309.509 253.023,309.383 253.228 C 309.256 253.432,309.339 253.600,309.566 253.600 C 309.813 253.600,309.883 253.114,309.740 252.400 C 309.552 251.461,309.641 251.200,310.150 251.200 C 310.507 251.200,310.800 251.020,310.800 250.800 C 310.800 250.580,311.070 250.400,311.400 250.400 C 311.730 250.400,312.000 250.220,312.000 250.000 C 312.000 249.780,312.284 249.600,312.632 249.600 C 313.126 249.600,313.206 249.338,313.000 248.400 C 312.794 247.462,312.874 247.200,313.368 247.200 C 313.716 247.200,314.000 247.020,314.000 246.800 C 314.000 246.580,314.234 246.400,314.520 246.400 C 315.093 246.400,316.000 244.239,316.000 242.872 C 316.000 242.364,316.250 242.000,316.600 242.000 C 316.997 242.000,317.200 241.603,317.200 240.824 C 317.200 240.177,317.408 239.519,317.662 239.362 C 317.948 239.185,318.015 239.252,317.838 239.538 C 317.681 239.792,317.727 240.000,317.939 240.000 C 318.454 240.000,318.706 235.664,318.220 235.179 C 317.980 234.940,318.091 234.800,318.520 234.800 C 319.157 234.800,319.200 231.386,319.200 181.298 L 319.200 127.795 318.000 127.264 C 317.340 126.972,316.800 126.478,316.800 126.166 C 316.800 125.138,312.547 125.395,312.274 126.440 C 312.153 126.903,311.862 127.162,311.627 127.017 C 311.392 126.872,311.200 126.943,311.200 127.176 C 311.200 127.409,310.925 127.600,310.590 127.600 C 310.050 127.600,309.983 129.977,310.013 148.100 C 310.042 166.353,309.978 168.614,309.423 168.729 C 309.059 168.805,308.800 168.585,308.800 168.201 C 308.800 167.458,307.877 166.400,307.229 166.400 C 306.993 166.400,306.800 165.860,306.800 165.200 C 306.800 164.400,306.600 164.000,306.200 164.000 C 305.827 164.000,305.600 163.622,305.600 163.000 C 305.600 162.450,305.420 162.000,305.200 162.000 C 304.980 162.000,304.800 161.550,304.800 161.000 C 304.800 160.378,304.573 160.000,304.200 160.000 C 303.827 160.000,303.600 159.622,303.600 159.000 C 303.600 158.450,303.420 158.000,303.200 158.000 C 302.980 158.000,302.800 157.730,302.800 157.400 C 302.800 157.070,302.530 156.800,302.200 156.800 C 301.827 156.800,301.600 156.422,301.600 155.800 C 301.600 155.178,301.373 154.800,301.000 154.800 C 300.614 154.800,300.398 154.408,300.394 153.700 C 300.389 152.843,300.302 152.732,300.000 153.200 C 299.698 153.668,299.611 153.557,299.606 152.700 C 299.602 151.992,299.386 151.600,299.000 151.600 C 298.670 151.600,298.400 151.420,298.400 151.200 C 298.400 150.980,298.222 150.800,298.005 150.800 C 297.080 150.800,296.028 149.429,296.255 148.521 C 296.425 147.846,296.315 147.600,295.843 147.600 C 295.490 147.600,295.200 147.330,295.200 147.000 C 295.200 146.670,295.020 146.400,294.800 146.400 C 294.580 146.400,294.400 146.130,294.400 145.800 C 294.400 145.470,294.130 145.200,293.800 145.200 C 293.470 145.200,293.200 145.020,293.200 144.800 C 293.200 144.580,292.930 144.400,292.600 144.400 C 292.270 144.400,292.000 144.207,292.000 143.971 C 292.000 143.418,290.982 142.400,290.429 142.400 C 290.193 142.400,290.000 142.206,290.000 141.969 C 290.000 141.409,287.791 139.200,287.231 139.200 C 286.994 139.200,286.800 139.007,286.800 138.771 C 286.800 138.218,285.782 137.200,285.229 137.200 C 284.993 137.200,284.800 136.911,284.800 136.557 C 284.800 136.176,284.576 136.000,284.250 136.126 C 283.909 136.256,283.719 136.082,283.750 135.668 C 283.787 135.169,283.522 135.029,282.700 135.115 C 281.927 135.196,281.600 135.047,281.600 134.615 C 281.600 134.277,281.420 134.000,281.200 134.000 C 280.980 134.000,280.800 133.730,280.800 133.400 C 280.800 133.070,280.530 132.800,280.200 132.800 C 279.870 132.800,279.600 132.620,279.600 132.400 C 279.600 132.180,279.150 132.000,278.600 132.000 C 277.978 132.000,277.600 131.773,277.600 131.400 C 277.600 131.070,277.330 130.800,277.000 130.800 C 276.670 130.800,276.400 130.530,276.400 130.200 C 276.400 129.860,276.041 129.600,275.571 129.600 C 274.686 129.600,273.600 128.734,273.600 128.029 C 273.600 127.793,273.401 127.600,273.157 127.600 C 272.914 127.600,272.818 127.870,272.945 128.200 C 273.071 128.530,273.001 128.800,272.787 128.800 C 272.574 128.800,272.400 128.530,272.400 128.200 C 272.400 127.870,272.130 127.600,271.800 127.600 C 271.470 127.600,271.200 127.420,271.200 127.200 C 271.200 126.980,270.300 126.800,269.200 126.800 C 267.244 126.800,267.200 126.773,267.200 125.600 C 267.200 124.587,267.044 124.400,266.200 124.400 C 265.650 124.400,265.200 124.220,265.200 124.000 C 265.200 123.780,265.065 123.621,264.900 123.647 C 263.931 123.800,263.200 123.522,263.200 123.000 C 263.200 122.600,262.800 122.400,262.000 122.400 C 261.340 122.400,260.800 122.220,260.800 122.000 C 260.800 121.780,260.170 121.600,259.400 121.600 C 258.422 121.600,258.000 121.419,258.000 121.000 C 258.000 120.534,257.468 120.400,255.613 120.400 C 253.566 120.400,253.261 120.307,253.476 119.745 C 253.696 119.173,253.490 119.126,251.864 119.370 C 250.322 119.601,250.000 119.541,250.000 119.025 C 250.000 118.453,249.080 118.191,247.700 118.370 C 247.425 118.406,247.200 118.157,247.200 117.818 C 247.200 117.378,246.795 117.200,245.800 117.200 C 245.030 117.200,244.400 117.020,244.400 116.800 C 244.400 116.580,243.410 116.400,242.200 116.400 C 240.511 116.400,240.000 116.261,240.000 115.800 C 240.000 115.328,239.444 115.200,237.400 115.200 C 235.356 115.200,234.800 115.072,234.800 114.600 C 234.800 114.120,234.200 114.000,231.800 114.000 C 230.067 114.000,228.800 113.831,228.800 113.600 C 228.800 113.359,227.133 113.200,224.600 113.200 C 221.133 113.200,220.400 113.095,220.400 112.600 C 220.400 112.075,217.933 112.000,200.600 112.000 C 183.267 112.000,180.800 112.075,180.800 112.600 M200.200 180.417 C 227.700 180.403,254.310 180.349,259.333 180.296 C 267.808 180.207,268.504 180.253,269.004 180.937 C 269.391 181.467,269.972 181.648,271.071 181.581 C 273.140 181.455,273.600 181.531,273.600 181.995 C 273.600 182.931,275.033 184.000,276.289 184.000 C 277.054 184.000,277.613 184.208,277.632 184.500 C 277.657 184.900,277.704 184.900,277.865 184.500 C 277.976 184.225,278.242 184.000,278.457 184.000 C 278.672 184.000,278.746 184.163,278.623 184.363 C 278.500 184.562,278.770 184.628,279.223 184.510 C 279.831 184.351,280.106 184.521,280.273 185.158 C 280.440 185.795,280.703 185.958,281.272 185.777 C 281.874 185.586,282.149 185.810,282.521 186.797 C 282.930 187.881,283.161 188.038,284.137 187.895 C 285.204 187.738,285.260 187.799,285.042 188.889 C 284.821 189.996,284.870 190.044,286.105 189.925 C 287.290 189.811,287.396 189.894,287.357 190.900 C 287.333 191.505,287.468 192.000,287.657 192.000 C 287.846 192.000,288.000 192.270,288.000 192.600 C 288.000 193.120,288.724 193.398,289.692 193.250 C 290.250 193.164,291.385 195.348,291.264 196.272 C 291.182 196.901,291.346 197.200,291.771 197.200 C 292.175 197.200,292.400 197.558,292.400 198.200 C 292.400 198.787,292.607 199.159,292.900 199.100 C 293.230 199.034,293.368 199.426,293.305 200.255 C 293.232 201.215,293.395 201.558,294.002 201.716 C 294.699 201.899,294.764 202.150,294.541 203.781 C 294.351 205.163,294.414 205.608,294.786 205.519 C 295.172 205.427,295.271 206.832,295.218 211.680 C 295.178 215.405,295.320 218.276,295.567 218.738 C 296.009 219.564,295.229 220.693,294.628 220.097 C 294.464 219.933,294.384 220.699,294.451 221.797 C 294.550 223.411,294.444 223.819,293.900 223.924 C 293.356 224.029,293.314 224.193,293.678 224.776 C 294.188 225.592,292.760 228.400,291.836 228.400 C 291.561 228.400,291.351 228.805,291.368 229.300 C 291.391 229.938,291.187 230.182,290.666 230.139 C 290.083 230.090,289.982 230.274,290.174 231.039 C 290.311 231.583,290.238 232.000,290.008 232.000 C 289.783 232.000,289.600 232.193,289.600 232.429 C 289.600 233.645,283.224 239.200,281.828 239.200 C 281.483 239.200,281.200 239.484,281.200 239.832 C 281.200 240.322,280.938 240.406,280.031 240.207 C 278.973 239.974,278.884 240.034,279.093 240.833 C 279.295 241.606,279.195 241.692,278.298 241.521 C 277.600 241.387,277.332 241.480,277.460 241.811 C 277.707 242.456,276.576 242.859,275.368 242.556 C 274.661 242.379,274.400 242.478,274.400 242.923 C 274.400 243.749,273.599 243.968,272.456 243.455 C 271.697 243.114,271.414 243.167,271.007 243.723 C 270.577 244.311,177.002 244.763,129.957 244.403 C 129.714 244.402,129.618 244.130,129.745 243.800 C 130.004 243.125,128.615 242.928,128.211 243.583 C 127.882 244.115,126.800 243.635,126.800 242.957 C 126.800 242.651,126.530 242.400,126.200 242.400 C 125.870 242.400,125.600 242.106,125.600 241.746 C 125.600 241.200,125.300 241.132,123.800 241.338 C 122.172 241.561,122.000 241.506,122.000 240.765 C 122.000 240.134,121.820 240.003,121.218 240.194 C 120.100 240.549,118.400 239.318,118.400 238.154 C 118.400 237.342,118.204 237.200,117.081 237.200 C 115.215 237.200,112.579 234.535,112.957 233.031 C 113.150 232.262,113.061 232.000,112.608 232.000 C 112.273 232.000,112.000 231.730,112.000 231.400 C 112.000 231.070,111.730 230.800,111.400 230.800 C 111.070 230.800,110.800 230.620,110.800 230.400 C 110.800 230.180,110.509 230.000,110.153 230.000 C 109.713 230.000,109.571 229.755,109.707 229.235 C 109.842 228.717,109.664 228.405,109.156 228.273 C 108.509 228.103,108.440 227.820,108.657 226.238 C 108.829 224.985,108.764 224.400,108.454 224.400 C 108.204 224.400,108.000 224.018,108.000 223.551 C 108.000 222.866,107.891 222.792,107.436 223.170 C 106.636 223.834,106.305 223.114,106.625 221.407 C 106.838 220.271,106.765 220.000,106.245 220.000 C 105.890 220.000,105.582 219.685,105.560 219.300 C 105.528 218.745,105.555 207.108,105.591 205.900 C 105.596 205.735,105.879 205.600,106.220 205.600 C 106.710 205.600,106.815 205.201,106.720 203.700 C 106.619 202.095,106.709 201.809,107.300 201.856 C 107.739 201.890,108.000 201.630,108.000 201.156 C 108.000 200.740,108.180 200.400,108.400 200.400 C 108.620 200.400,108.800 199.950,108.800 199.400 C 108.800 198.778,109.027 198.400,109.400 198.400 C 109.773 198.400,110.000 198.022,110.000 197.400 C 110.000 196.850,110.193 196.400,110.429 196.400 C 110.664 196.400,110.824 195.995,110.784 195.500 C 110.654 193.890,110.783 193.667,112.000 193.400 C 112.660 193.255,113.200 192.958,113.200 192.740 C 113.200 192.212,114.233 191.200,114.771 191.200 C 115.007 191.200,115.200 190.930,115.200 190.600 C 115.200 190.270,115.391 190.000,115.624 190.000 C 115.857 190.000,115.936 189.820,115.800 189.600 C 115.664 189.380,115.909 189.200,116.345 189.200 C 116.900 189.200,117.215 188.840,117.401 187.997 C 117.682 186.716,118.761 185.892,119.905 186.084 C 120.369 186.161,120.643 185.897,120.729 185.287 C 120.844 184.479,121.016 184.404,122.229 184.632 C 123.122 184.799,123.600 184.734,123.600 184.445 C 123.600 184.200,123.960 184.000,124.400 184.000 C 124.944 184.000,125.200 183.733,125.200 183.168 C 125.200 182.460,125.371 182.374,126.348 182.589 C 127.284 182.794,127.535 182.690,127.710 182.023 C 127.900 181.298,128.134 181.234,129.777 181.459 C 131.223 181.657,131.736 181.571,132.115 181.069 C 132.706 180.285,136.053 180.073,144.400 180.291 C 147.590 180.374,172.700 180.431,200.200 180.417 M134.800 200.157 C 134.800 200.881,133.883 201.224,133.164 200.769 C 132.345 200.251,132.000 200.319,132.000 201.000 C 132.000 201.330,131.841 201.600,131.647 201.600 C 131.452 201.600,131.197 201.967,131.080 202.416 C 130.910 203.067,130.658 203.180,129.833 202.973 C 129.188 202.811,128.800 202.880,128.800 203.157 C 128.800 203.400,128.522 203.600,128.182 203.600 C 127.696 203.600,127.618 203.890,127.819 204.960 C 128.058 206.232,127.994 206.338,126.837 206.592 C 125.554 206.874,125.193 207.938,125.965 209.158 C 126.468 209.952,125.654 212.106,124.952 211.837 C 124.549 211.682,124.400 211.995,124.400 213.000 C 124.400 214.054,124.539 214.322,124.997 214.146 C 125.634 213.901,125.927 214.396,126.095 216.000 C 126.153 216.550,126.403 217.180,126.652 217.400 C 127.367 218.033,127.674 219.904,127.099 220.129 C 126.825 220.237,127.185 220.455,127.900 220.613 C 128.996 220.855,129.439 221.246,129.132 221.700 C 128.795 222.199,130.175 223.598,130.806 223.398 C 131.644 223.132,133.600 224.225,133.600 224.958 C 133.600 225.284,134.918 225.424,138.000 225.424 C 141.206 225.424,142.400 225.291,142.400 224.934 C 142.400 224.474,143.417 223.783,145.486 222.836 C 145.974 222.613,146.781 221.807,147.280 221.046 C 147.831 220.205,148.621 219.576,149.294 219.441 C 150.322 219.236,150.400 219.082,150.400 217.253 C 150.400 215.873,150.579 215.217,151.000 215.055 C 151.820 214.741,151.860 210.800,151.043 210.800 C 150.264 210.800,149.939 209.732,150.236 208.146 C 150.458 206.968,150.385 206.800,149.655 206.800 C 148.814 206.800,147.385 204.749,147.880 204.253 C 148.017 204.117,147.739 203.668,147.264 203.256 C 146.789 202.843,146.400 202.288,146.400 202.021 C 146.400 201.691,146.018 201.620,145.200 201.800 C 144.167 202.027,144.000 201.948,144.000 201.232 C 144.000 200.311,143.594 200.166,142.915 200.845 C 142.381 201.379,141.600 200.981,141.600 200.176 C 141.600 199.720,140.894 199.600,138.200 199.600 C 135.561 199.600,134.800 199.725,134.800 200.157 M258.500 199.876 C 258.885 199.976,259.200 200.238,259.200 200.456 C 259.200 200.675,258.840 200.740,258.400 200.600 C 257.791 200.407,257.600 200.528,257.600 201.109 C 257.600 201.919,256.116 202.800,254.753 202.800 C 254.307 202.800,253.673 203.070,253.343 203.400 C 253.013 203.730,252.868 204.000,253.020 204.000 C 253.173 204.000,253.051 204.298,252.749 204.661 C 252.447 205.025,252.245 205.385,252.300 205.461 C 252.355 205.538,252.387 205.735,252.372 205.900 C 252.356 206.065,252.173 205.840,251.965 205.400 C 251.692 204.824,251.643 205.146,251.791 206.546 C 251.984 208.364,251.943 208.478,251.167 208.275 C 250.513 208.104,250.392 208.201,250.597 208.729 C 250.740 209.098,250.895 211.045,250.942 213.055 C 250.996 215.355,251.221 216.943,251.549 217.339 C 251.881 217.738,251.973 218.410,251.804 219.184 C 251.599 220.116,251.676 220.400,252.135 220.400 C 252.464 220.400,252.793 220.535,252.867 220.700 C 252.940 220.865,253.540 221.307,254.200 221.682 C 254.934 222.099,255.349 222.625,255.270 223.036 C 255.181 223.495,255.331 223.635,255.741 223.478 C 256.585 223.154,258.393 224.074,258.397 224.830 C 258.400 225.365,259.056 225.457,262.800 225.440 C 265.950 225.426,267.200 225.284,267.200 224.940 C 267.200 224.675,267.768 224.175,268.461 223.829 C 270.007 223.058,269.904 223.054,270.118 223.900 C 270.240 224.381,270.389 224.200,270.594 223.320 C 270.945 221.812,271.767 221.010,273.349 220.634 C 274.438 220.375,274.459 220.330,273.749 219.793 C 273.051 219.264,273.087 219.225,274.264 219.213 L 275.528 219.200 275.421 213.365 C 275.316 207.664,275.292 207.519,274.357 207.042 C 273.578 206.644,273.416 206.278,273.488 205.076 C 273.552 204.004,273.415 203.600,272.988 203.600 C 272.665 203.600,272.400 203.420,272.400 203.200 C 272.400 202.980,271.860 202.800,271.200 202.800 C 270.540 202.800,270.000 202.620,270.000 202.400 C 270.000 202.180,269.730 202.000,269.400 202.000 C 269.067 202.000,268.800 201.644,268.800 201.200 C 268.800 200.288,268.385 200.175,267.667 200.893 C 267.276 201.284,267.125 201.201,266.940 200.493 C 266.715 199.633,266.543 199.602,262.253 199.646 C 259.804 199.672,258.115 199.775,258.500 199.876 " stroke="none" fill="#ffffff" fill-rule="evenodd"></path><path id="path1" d="M166.400 114.600 C 166.400 114.930,166.580 115.200,166.800 115.200 C 167.020 115.200,167.200 114.930,167.200 114.600 C 167.200 114.270,167.020 114.000,166.800 114.000 C 166.580 114.000,166.400 114.270,166.400 114.600 M247.200 117.813 C 247.200 118.460,247.825 118.607,248.174 118.042 C 248.296 117.845,248.126 117.581,247.798 117.454 C 247.435 117.315,247.200 117.456,247.200 117.813 M250.000 119.000 C 250.000 119.333,250.356 119.600,250.800 119.600 C 251.244 119.600,251.600 119.333,251.600 119.000 C 251.600 118.667,251.244 118.400,250.800 118.400 C 250.356 118.400,250.000 118.667,250.000 119.000 M253.446 119.825 C 253.300 120.205,253.492 120.400,254.013 120.400 C 254.923 120.400,255.068 119.788,254.233 119.468 C 253.921 119.348,253.567 119.509,253.446 119.825 M82.800 126.171 C 82.800 126.542,83.142 126.800,83.633 126.800 C 84.608 126.800,84.470 125.865,83.467 125.671 C 83.072 125.594,82.800 125.798,82.800 126.171 M88.800 126.138 C 88.800 126.778,90.067 128.000,90.731 128.000 C 90.989 128.000,91.200 127.730,91.200 127.400 C 91.200 127.070,90.930 126.800,90.600 126.800 C 90.270 126.800,90.000 126.530,90.000 126.200 C 90.000 125.870,89.730 125.600,89.400 125.600 C 89.070 125.600,88.800 125.842,88.800 126.138 M132.000 126.200 C 132.000 126.530,132.270 126.800,132.600 126.800 C 132.930 126.800,133.200 126.530,133.200 126.200 C 133.200 125.870,132.930 125.600,132.600 125.600 C 132.270 125.600,132.000 125.870,132.000 126.200 M267.200 126.200 C 267.200 126.571,267.576 126.800,268.187 126.800 C 268.901 126.800,269.111 126.633,268.945 126.200 C 268.818 125.870,268.374 125.600,267.957 125.600 C 267.541 125.600,267.200 125.870,267.200 126.200 M311.271 126.221 C 311.452 127.090,312.161 127.143,312.324 126.300 C 312.408 125.862,312.212 125.600,311.800 125.600 C 311.416 125.600,311.195 125.859,311.271 126.221 M316.800 126.056 C 316.800 126.603,318.000 127.569,318.700 127.587 C 318.975 127.594,319.200 127.420,319.200 127.200 C 319.200 126.980,318.930 126.800,318.600 126.800 C 318.270 126.800,318.000 126.530,318.000 126.200 C 318.000 125.870,317.730 125.600,317.400 125.600 C 317.070 125.600,316.800 125.805,316.800 126.056 M129.700 127.300 C 129.792 127.575,130.107 127.800,130.400 127.800 C 130.693 127.800,131.008 127.575,131.100 127.300 C 131.199 127.003,130.916 126.800,130.400 126.800 C 129.884 126.800,129.601 127.003,129.700 127.300 M281.600 134.600 C 281.600 134.930,281.855 135.200,282.167 135.200 C 282.478 135.200,282.805 135.416,282.893 135.680 C 283.018 136.054,283.119 136.054,283.350 135.680 C 283.514 135.416,283.457 135.200,283.224 135.200 C 282.991 135.200,282.800 134.930,282.800 134.600 C 282.800 134.270,282.530 134.000,282.200 134.000 C 281.870 134.000,281.600 134.270,281.600 134.600 M116.882 135.938 C 116.622 136.490,116.521 137.045,116.659 137.171 C 116.797 137.297,116.990 137.175,117.088 136.900 C 117.186 136.625,117.522 136.400,117.833 136.400 C 118.145 136.400,118.400 136.070,118.400 135.667 C 118.400 134.597,117.433 134.770,116.882 135.938 M109.200 143.800 C 108.792 144.291,108.820 144.400,109.351 144.400 C 109.708 144.400,110.000 144.130,110.000 143.800 C 110.000 143.470,109.932 143.200,109.849 143.200 C 109.766 143.200,109.474 143.470,109.200 143.800 M296.181 148.831 C 296.035 149.067,296.300 149.620,296.771 150.059 C 297.803 151.021,298.823 150.881,297.854 149.911 C 297.494 149.551,297.200 149.064,297.200 148.829 C 297.200 148.273,296.525 148.275,296.181 148.831 M102.800 150.927 C 102.800 151.674,103.452 152.162,103.768 151.652 C 103.891 151.453,103.723 151.068,103.396 150.796 C 102.911 150.394,102.800 150.419,102.800 150.927 M101.867 151.867 C 101.406 152.327,101.575 152.800,102.200 152.800 C 102.530 152.800,102.800 152.530,102.800 152.200 C 102.800 151.575,102.327 151.406,101.867 151.867 M97.600 158.600 C 97.600 158.930,97.870 159.200,98.200 159.200 C 98.530 159.200,98.800 158.930,98.800 158.600 C 98.800 158.270,98.530 158.000,98.200 158.000 C 97.870 158.000,97.600 158.270,97.600 158.600 M96.667 160.267 C 96.206 160.727,96.375 161.200,97.000 161.200 C 97.330 161.200,97.600 160.930,97.600 160.600 C 97.600 159.975,97.127 159.806,96.667 160.267 M92.400 168.000 C 92.400 168.444,92.667 168.800,93.000 168.800 C 93.333 168.800,93.600 168.444,93.600 168.000 C 93.600 167.556,93.333 167.200,93.000 167.200 C 92.667 167.200,92.400 167.556,92.400 168.000 M308.800 168.000 C 308.800 168.602,309.009 168.818,309.500 168.724 C 309.885 168.650,310.200 168.324,310.200 168.000 C 310.200 167.676,309.885 167.350,309.500 167.276 C 309.009 167.182,308.800 167.398,308.800 168.000 M135.432 180.373 C 133.425 180.517,132.203 180.783,132.098 181.100 C 131.970 181.490,133.959 181.600,141.167 181.600 C 148.792 181.600,150.400 181.503,150.400 181.043 C 150.400 179.974,144.627 179.716,135.432 180.373 M250.100 180.265 C 249.825 180.376,249.600 180.722,249.600 181.033 C 249.600 181.507,251.216 181.600,259.433 181.600 C 267.107 181.600,269.230 181.491,269.100 181.101 C 268.796 180.187,252.114 179.452,250.100 180.265 M127.880 181.453 C 127.252 182.081,127.651 182.800,128.629 182.800 C 129.392 182.800,129.624 182.620,129.525 182.105 C 129.385 181.376,128.362 180.971,127.880 181.453 M271.867 181.467 C 271.259 182.074,271.659 182.800,272.600 182.800 C 273.717 182.800,273.979 181.831,272.967 181.443 C 272.184 181.142,272.191 181.142,271.867 181.467 M125.200 183.200 C 125.200 183.644,125.467 184.000,125.800 184.000 C 126.133 184.000,126.400 183.644,126.400 183.200 C 126.400 182.756,126.133 182.400,125.800 182.400 C 125.467 182.400,125.200 182.756,125.200 183.200 M278.000 184.424 C 278.000 184.657,278.180 184.736,278.400 184.600 C 278.620 184.464,278.800 184.723,278.800 185.176 C 278.800 185.733,279.059 186.000,279.600 186.000 C 280.752 186.000,280.591 184.853,279.374 184.390 C 278.089 183.902,278.000 183.904,278.000 184.424 M120.800 185.171 C 120.800 185.743,121.057 186.000,121.629 186.000 C 122.654 186.000,122.538 184.676,121.495 184.475 C 121.015 184.383,120.800 184.598,120.800 185.171 M281.075 185.858 C 280.553 186.380,280.802 186.800,281.633 186.800 C 282.099 186.800,282.397 186.590,282.308 186.325 C 282.113 185.740,281.446 185.488,281.075 185.858 M118.300 186.432 C 117.349 186.986,117.414 188.000,118.400 188.000 C 118.844 188.000,119.200 187.733,119.200 187.400 C 119.200 187.070,119.481 186.800,119.824 186.800 C 120.167 186.800,120.336 186.620,120.200 186.400 C 119.888 185.896,119.200 185.908,118.300 186.432 M284.403 187.994 C 283.933 188.288,283.910 188.470,284.297 188.857 C 284.879 189.439,285.325 189.112,285.135 188.242 C 285.039 187.800,284.828 187.728,284.403 187.994 M286.275 189.858 C 285.760 190.373,285.998 191.106,286.743 191.301 C 287.295 191.445,287.475 191.286,287.443 190.681 C 287.398 189.835,286.753 189.380,286.275 189.858 M289.467 193.467 C 288.973 193.961,289.195 194.795,290.047 195.647 C 291.269 196.869,291.817 195.828,290.745 194.322 C 289.869 193.092,289.852 193.081,289.467 193.467 M110.670 194.161 C 110.419 194.815,110.714 195.200,111.467 195.200 C 111.760 195.200,112.000 194.840,112.000 194.400 C 112.000 193.490,110.997 193.310,110.670 194.161 M291.200 197.800 C 291.200 198.130,291.470 198.400,291.800 198.400 C 292.130 198.400,292.400 198.130,292.400 197.800 C 292.400 197.470,292.130 197.200,291.800 197.200 C 291.470 197.200,291.200 197.470,291.200 197.800 M292.656 199.078 C 292.178 199.556,292.398 200.400,293.000 200.400 C 293.330 200.400,293.600 200.141,293.600 199.824 C 293.600 199.155,293.029 198.704,292.656 199.078 M132.972 200.045 C 132.634 200.592,133.532 201.201,134.264 200.920 C 134.559 200.807,134.800 200.464,134.800 200.157 C 134.800 199.495,133.367 199.407,132.972 200.045 M141.676 200.300 C 141.750 200.685,142.076 201.000,142.400 201.000 C 142.724 201.000,143.050 200.685,143.124 200.300 C 143.218 199.809,143.002 199.600,142.400 199.600 C 141.798 199.600,141.582 199.809,141.676 200.300 M266.800 200.176 C 266.800 200.493,266.960 200.851,267.155 200.972 C 267.595 201.244,268.492 200.225,268.130 199.863 C 267.654 199.387,266.800 199.588,266.800 200.176 M144.000 201.167 C 144.000 201.658,144.258 202.000,144.629 202.000 C 145.002 202.000,145.206 201.728,145.129 201.333 C 144.935 200.330,144.000 200.192,144.000 201.167 M255.489 201.205 C 254.729 202.092,254.592 202.800,255.181 202.800 C 256.146 202.800,257.600 201.800,257.600 201.136 C 257.600 200.147,256.360 200.188,255.489 201.205 M268.800 201.200 C 268.800 201.644,269.067 202.000,269.400 202.000 C 269.730 202.000,270.000 202.180,270.000 202.400 C 270.000 202.620,270.270 202.800,270.600 202.800 C 271.359 202.800,271.352 202.604,270.554 201.386 C 269.775 200.197,268.800 200.094,268.800 201.200 M106.675 201.858 C 106.087 202.447,106.396 203.659,107.100 203.524 C 107.485 203.450,107.800 203.047,107.800 202.628 C 107.800 201.832,107.148 201.386,106.675 201.858 M129.676 202.300 C 129.750 202.685,130.076 203.000,130.400 203.000 C 130.724 203.000,131.050 202.685,131.124 202.300 C 131.218 201.809,131.002 201.600,130.400 201.600 C 129.798 201.600,129.582 201.809,129.676 202.300 M293.200 202.600 C 293.200 203.393,293.376 203.625,293.900 203.524 C 294.285 203.450,294.600 203.034,294.600 202.600 C 294.600 202.166,294.285 201.750,293.900 201.676 C 293.376 201.575,293.200 201.807,293.200 202.600 M147.895 204.078 C 147.586 204.947,148.754 206.800,149.610 206.800 C 150.045 206.800,150.400 206.620,150.400 206.400 C 150.400 206.180,150.232 206.000,150.027 206.000 C 149.821 206.000,149.596 205.507,149.527 204.903 C 149.394 203.752,148.222 203.160,147.895 204.078 M126.800 205.600 C 126.800 206.044,127.067 206.400,127.400 206.400 C 127.733 206.400,128.000 206.044,128.000 205.600 C 128.000 205.156,127.733 204.800,127.400 204.800 C 127.067 204.800,126.800 205.156,126.800 205.600 M273.272 205.690 C 273.437 206.837,275.332 207.895,275.536 206.954 C 275.681 206.288,274.336 204.800,273.589 204.800 C 273.344 204.800,273.202 205.200,273.272 205.690 M294.564 205.750 C 294.419 206.127,294.416 206.550,294.557 206.691 C 294.698 206.831,295.026 206.734,295.287 206.473 C 295.647 206.113,295.649 205.889,295.293 205.533 C 294.937 205.177,294.764 205.229,294.564 205.750 M105.455 206.200 C 105.140 207.023,105.567 208.000,106.243 208.000 C 106.595 208.000,106.800 207.559,106.800 206.800 C 106.800 205.526,105.873 205.112,105.455 206.200 M250.468 207.459 C 250.546 207.862,250.938 208.254,251.341 208.332 C 251.869 208.433,252.033 208.269,251.932 207.741 C 251.854 207.338,251.462 206.946,251.059 206.868 C 250.531 206.767,250.367 206.931,250.468 207.459 M150.186 208.423 C 149.769 209.097,150.358 210.800,151.008 210.800 C 151.418 210.800,151.600 210.370,151.600 209.400 C 151.600 208.014,150.786 207.452,150.186 208.423 M124.556 209.371 C 124.233 210.211,124.531 211.715,125.055 211.887 C 125.565 212.055,126.371 210.072,126.105 209.300 C 125.871 208.619,124.826 208.667,124.556 209.371 M249.600 213.000 C 249.600 216.227,249.723 217.200,250.132 217.200 C 250.424 217.200,250.649 217.599,250.632 218.088 C 250.612 218.629,250.873 219.030,251.300 219.117 C 252.126 219.284,252.270 218.030,251.512 217.272 C 251.215 216.975,250.988 215.342,250.930 213.092 C 250.878 211.062,250.827 209.265,250.817 209.100 C 250.808 208.935,250.530 208.800,250.200 208.800 C 249.705 208.800,249.600 209.533,249.600 213.000 M275.313 212.400 C 275.347 214.801,275.516 216.000,275.820 216.000 C 276.126 216.000,276.286 214.814,276.305 212.400 C 276.327 209.647,276.207 208.800,275.798 208.800 C 275.387 208.800,275.275 209.636,275.313 212.400 M124.667 214.267 C 124.114 214.820,124.384 217.200,125.000 217.200 C 125.373 217.200,125.600 217.578,125.600 218.200 C 125.600 218.822,125.827 219.200,126.200 219.200 C 126.530 219.200,126.800 219.380,126.800 219.600 C 126.800 219.820,126.983 220.000,127.208 220.000 C 127.716 220.000,127.279 217.955,126.652 217.400 C 126.403 217.180,126.153 216.550,126.095 216.000 C 125.902 214.154,125.395 213.539,124.667 214.267 M150.900 215.095 C 150.301 215.301,150.222 217.200,150.813 217.200 C 151.039 217.200,151.325 216.941,151.446 216.623 C 151.777 215.762,151.469 214.899,150.900 215.095 M105.384 216.826 C 104.940 217.544,105.586 220.000,106.218 220.000 C 106.641 220.000,106.800 219.508,106.800 218.200 C 106.800 216.438,106.065 215.725,105.384 216.826 M294.400 219.133 C 294.400 219.537,294.518 219.985,294.663 220.130 C 295.088 220.554,295.973 219.595,295.733 218.971 C 295.417 218.145,294.400 218.269,294.400 219.133 M147.316 220.976 C 146.494 222.244,145.570 222.933,143.300 223.969 C 142.805 224.195,142.400 224.655,142.400 224.990 C 142.400 225.782,143.952 225.790,144.255 225.000 C 144.382 224.670,144.886 224.400,145.375 224.400 C 145.915 224.400,146.475 224.006,146.800 223.400 C 147.094 222.850,147.575 222.400,147.868 222.400 C 148.160 222.400,148.400 222.130,148.400 221.800 C 148.400 221.470,148.670 221.200,149.000 221.200 C 149.333 221.200,149.600 220.844,149.600 220.400 C 149.600 219.127,148.301 219.454,147.316 220.976 M127.600 221.600 C 127.600 222.109,127.867 222.400,128.333 222.400 C 129.277 222.400,129.599 222.064,129.330 221.361 C 128.990 220.476,127.600 220.668,127.600 221.600 M271.462 221.531 C 270.682 222.393,270.587 223.603,271.300 223.593 C 271.910 223.585,273.600 221.858,273.600 221.244 C 273.600 220.539,272.188 220.729,271.462 221.531 M252.800 221.414 C 252.800 221.965,254.149 223.600,254.603 223.600 C 255.572 223.600,255.563 222.468,254.590 221.830 C 253.630 221.202,252.800 221.008,252.800 221.414 M106.400 222.333 C 106.400 223.349,106.826 223.676,107.463 223.148 C 108.262 222.484,108.112 221.600,107.200 221.600 C 106.691 221.600,106.400 221.867,106.400 222.333 M293.338 223.017 C 293.036 223.804,293.393 224.165,294.176 223.865 C 294.528 223.730,294.686 223.369,294.550 223.015 C 294.247 222.225,293.642 222.226,293.338 223.017 M130.800 223.800 C 130.800 224.130,131.070 224.400,131.400 224.400 C 131.730 224.400,132.000 224.670,132.000 225.000 C 132.000 225.333,132.356 225.600,132.800 225.600 C 133.906 225.600,133.803 224.625,132.614 223.846 C 131.383 223.040,130.800 223.025,130.800 223.800 M255.811 223.582 C 255.667 223.815,255.831 224.114,256.175 224.246 C 256.519 224.378,256.800 224.736,256.800 225.043 C 256.800 225.349,257.160 225.600,257.600 225.600 C 258.610 225.600,258.690 224.196,257.700 223.846 C 257.315 223.711,256.791 223.500,256.537 223.379 C 256.282 223.257,255.955 223.349,255.811 223.582 M268.300 223.864 C 266.910 224.597,266.852 225.600,268.200 225.600 C 268.822 225.600,269.200 225.373,269.200 225.000 C 269.200 224.670,269.380 224.400,269.600 224.400 C 269.820 224.400,270.000 224.130,270.000 223.800 C 270.000 223.088,269.757 223.097,268.300 223.864 M292.400 225.600 C 292.400 226.400,292.200 226.800,291.800 226.800 C 291.467 226.800,291.200 227.156,291.200 227.600 C 291.200 228.857,292.250 228.537,293.206 226.990 C 294.124 225.505,294.041 224.400,293.013 224.400 C 292.599 224.400,292.400 224.789,292.400 225.600 M136.000 225.800 C 136.000 226.253,136.489 226.400,138.000 226.400 C 139.511 226.400,140.000 226.253,140.000 225.800 C 140.000 225.347,139.511 225.200,138.000 225.200 C 136.489 225.200,136.000 225.347,136.000 225.800 M261.200 225.778 C 261.200 226.259,261.661 226.400,263.233 226.400 C 265.876 226.400,265.737 225.452,263.069 225.278 C 261.593 225.182,261.200 225.287,261.200 225.778 M108.475 227.495 C 108.676 228.538,110.000 228.654,110.000 227.629 C 110.000 227.057,109.743 226.800,109.171 226.800 C 108.598 226.800,108.383 227.015,108.475 227.495 M109.600 229.400 C 109.600 229.730,109.870 230.000,110.200 230.000 C 110.530 230.000,110.800 229.730,110.800 229.400 C 110.800 229.070,110.530 228.800,110.200 228.800 C 109.870 228.800,109.600 229.070,109.600 229.400 M290.178 229.235 C 290.031 229.474,290.094 229.854,290.320 230.080 C 290.825 230.585,291.600 230.158,291.600 229.376 C 291.600 228.703,290.571 228.600,290.178 229.235 M289.370 231.333 C 289.230 231.700,288.941 232.000,288.729 232.000 C 288.210 232.000,287.200 233.038,287.200 233.571 C 287.200 233.807,287.006 234.000,286.769 234.000 C 286.532 234.000,285.812 234.526,285.169 235.169 C 284.526 235.812,284.000 236.532,284.000 236.769 C 284.000 237.006,283.730 237.200,283.400 237.200 C 283.070 237.200,282.800 237.455,282.800 237.767 C 282.800 238.078,282.575 238.414,282.300 238.512 C 282.025 238.610,281.922 238.822,282.072 238.984 C 282.682 239.642,289.600 233.648,289.600 232.462 C 289.600 232.245,289.825 231.984,290.100 231.883 C 290.493 231.739,290.496 231.590,290.113 231.183 C 289.718 230.763,289.578 230.791,289.370 231.333 M112.800 233.519 C 112.800 234.424,115.603 237.200,116.517 237.200 C 116.893 237.200,117.200 236.930,117.200 236.600 C 117.200 236.270,116.930 236.000,116.600 236.000 C 116.270 236.000,116.000 235.807,116.000 235.571 C 116.000 235.018,114.982 234.000,114.429 234.000 C 114.193 234.000,114.000 233.730,114.000 233.400 C 114.000 233.070,113.730 232.800,113.400 232.800 C 113.070 232.800,112.800 233.123,112.800 233.519 M318.000 234.951 C 318.000 235.034,318.270 235.326,318.600 235.600 C 319.091 236.008,319.200 235.980,319.200 235.449 C 319.200 235.092,318.930 234.800,318.600 234.800 C 318.270 234.800,318.000 234.868,318.000 234.951 M118.400 238.554 C 118.400 239.124,120.049 240.400,120.786 240.400 C 121.405 240.400,121.286 239.710,120.511 238.805 C 119.724 237.885,118.400 237.728,118.400 238.554 M279.878 239.456 C 279.504 239.829,279.955 240.400,280.624 240.400 C 280.941 240.400,281.200 240.130,281.200 239.800 C 281.200 239.198,280.356 238.978,279.878 239.456 M122.000 240.800 C 122.000 241.569,122.782 241.884,123.330 241.337 C 123.633 241.034,122.876 240.000,122.351 240.000 C 122.158 240.000,122.000 240.360,122.000 240.800 M277.875 240.258 C 277.309 240.825,277.629 241.600,278.429 241.600 C 278.989 241.600,279.217 241.383,279.129 240.933 C 278.987 240.197,278.304 239.830,277.875 240.258 M275.600 242.000 C 275.600 242.844,276.230 243.022,277.151 242.439 C 277.866 241.986,277.375 241.200,276.376 241.200 C 275.867 241.200,275.600 241.475,275.600 242.000 M126.800 242.957 C 126.800 243.706,127.793 244.047,128.351 243.489 C 129.066 242.774,128.877 242.400,127.800 242.400 C 127.212 242.400,126.800 242.630,126.800 242.957 M272.400 242.957 C 272.400 243.590,273.155 243.967,273.900 243.708 C 274.817 243.388,274.439 242.400,273.400 242.400 C 272.812 242.400,272.400 242.630,272.400 242.957 M129.772 243.645 C 129.396 244.254,130.387 244.829,131.597 244.704 C 132.174 244.644,132.649 244.306,132.726 243.900 C 132.880 243.085,130.258 242.858,129.772 243.645 M268.400 244.000 C 268.400 244.584,268.667 244.800,269.386 244.800 C 269.962 244.800,270.550 244.468,270.800 244.000 C 271.191 243.270,271.104 243.200,269.814 243.200 C 268.667 243.200,268.400 243.351,268.400 244.000 M86.092 245.675 C 86.339 246.417,87.200 246.540,87.200 245.833 C 87.200 245.485,86.915 245.200,86.567 245.200 C 86.218 245.200,86.005 245.414,86.092 245.675 M87.455 247.800 C 87.582 248.130,87.846 248.400,88.043 248.400 C 88.239 248.400,88.400 248.130,88.400 247.800 C 88.400 247.470,88.136 247.200,87.813 247.200 C 87.455 247.200,87.315 247.435,87.455 247.800 M312.800 247.767 C 312.800 248.078,312.575 248.414,312.300 248.512 C 312.009 248.616,311.948 248.839,312.155 249.045 C 312.361 249.252,312.584 249.191,312.688 248.900 C 312.786 248.625,313.122 248.400,313.433 248.400 C 313.745 248.400,314.000 248.130,314.000 247.800 C 314.000 247.470,313.730 247.200,313.400 247.200 C 313.070 247.200,312.800 247.455,312.800 247.767 M89.200 249.767 C 89.200 250.115,89.485 250.400,89.833 250.400 C 90.182 250.400,90.395 250.186,90.308 249.925 C 90.061 249.183,89.200 249.060,89.200 249.767 M309.600 252.024 C 309.600 252.477,309.420 252.736,309.200 252.600 C 308.980 252.464,308.800 252.633,308.800 252.976 C 308.800 253.319,308.530 253.600,308.200 253.600 C 307.870 253.600,307.600 253.780,307.600 254.000 C 307.600 254.220,307.330 254.400,307.000 254.400 C 306.670 254.400,306.400 254.670,306.400 255.000 C 306.400 255.333,306.756 255.600,307.200 255.600 C 307.640 255.600,308.000 255.361,308.000 255.070 C 308.000 254.426,309.666 252.800,310.326 252.800 C 310.587 252.800,310.800 252.440,310.800 252.000 C 310.800 251.556,310.533 251.200,310.200 251.200 C 309.861 251.200,309.600 251.558,309.600 252.024 M92.400 253.957 C 92.400 254.154,92.670 254.418,93.000 254.545 C 93.365 254.685,93.600 254.545,93.600 254.187 C 93.600 253.864,93.330 253.600,93.000 253.600 C 92.670 253.600,92.400 253.761,92.400 253.957 M303.600 257.387 C 303.600 257.745,303.835 257.885,304.200 257.745 C 304.530 257.618,304.800 257.354,304.800 257.157 C 304.800 256.961,304.530 256.800,304.200 256.800 C 303.870 256.800,303.600 257.064,303.600 257.387 M300.400 259.387 C 300.400 259.745,300.635 259.885,301.000 259.745 C 301.330 259.618,301.600 259.354,301.600 259.157 C 301.600 258.961,301.330 258.800,301.000 258.800 C 300.670 258.800,300.400 259.064,300.400 259.387 M298.000 261.375 C 298.000 261.704,298.343 261.924,298.800 261.890 C 299.240 261.857,299.600 261.598,299.600 261.315 C 299.600 261.032,299.240 260.800,298.800 260.800 C 298.360 260.800,298.000 261.059,298.000 261.375 M291.067 265.067 C 290.606 265.527,290.775 266.000,291.400 266.000 C 291.730 266.000,292.000 265.730,292.000 265.400 C 292.000 264.775,291.527 264.606,291.067 265.067 M288.800 266.600 C 288.800 266.930,289.070 267.200,289.400 267.200 C 289.730 267.200,290.000 266.930,290.000 266.600 C 290.000 266.270,289.730 266.000,289.400 266.000 C 289.070 266.000,288.800 266.270,288.800 266.600 M141.292 276.875 C 141.539 277.617,142.400 277.740,142.400 277.033 C 142.400 276.685,142.115 276.400,141.767 276.400 C 141.418 276.400,141.205 276.614,141.292 276.875 M249.200 279.000 C 249.200 279.330,249.470 279.600,249.800 279.600 C 250.130 279.600,250.400 279.330,250.400 279.000 C 250.400 278.670,250.130 278.400,249.800 278.400 C 249.470 278.400,249.200 278.670,249.200 279.000 " stroke="none" fill="#93cfe1" fill-rule="evenodd"></path></g></svg>